# xmcd CD database file generated by Grip 3.2.0
# 
# Track frame offsets:
#       150
#       14424
#       25555
#       41233
#       59654
#       75612
#       90026
#       102400
#       115847
#       133123
#       144637
#       156219
#       169659
#       183993
#       192385
#       207266
#       221099
#       233207
# 
# Disc length: 3255 seconds
# 
# Revision: 2
# Processed by: cddbd v1.5.1PL2 Copyright (c) Steve Scherf et al.
# Submitted via: Grip 3.2.0
# 
DISCID=f90cb512
DTITLE=Various Artist - The greatest Era in Jazz from Swing to BebopCD3
DYEAR=2004
DGENRE=Jazz
TTITLE0=Benny Carter - Forever Blue
TTITLE1=Muggsy Spanier - Dippermouth Blues
TTITLE2=Mezz Mezzerow - Comin' On With The Come On
TTITLE3=Edmond Hall - High Society
TTITLE4=Billie Holiday - Do Nothing 'till You Hear From Me
TTITLE5=Erskine Hawkins - Hey Doc!
TTITLE6=Perry Como - A Bushel and A Peck
TTITLE7=Les Brown - Azure
TTITLE8=Ray Anthony - Dinah
TTITLE9=Oscar Peterson - (I Don't Stand A) Ghost Of A Chance With You
TTITLE10=Sidney Bechet - Baby, Won't You Please Come Home?
TTITLE11=George Wettling - Heebies Jeebies
TTITLE12=Fats Waller - African Ripples
TTITLE13=Oscar Peterson - Air Mail Special
TTITLE14=Ella Fitzgerald - He's My Guy
TTITLE15=Doris Day - Aren' You Glad You're You
TTITLE16=Frank Sinatra - Almost Like Being In Love
TTITLE17=Dizzy Gilespie - Round About Midnight
EXTD=
EXTT0=
EXTT1=
EXTT2=
EXTT3=
EXTT4=
EXTT5=
EXTT6=
EXTT7=
EXTT8=
EXTT9=
EXTT10=
EXTT11=
EXTT12=
EXTT13=
EXTT14=
EXTT15=
EXTT16=
EXTT17=
PLAYORDER=
